<svg width="692" height="649" viewBox="0 0 692 649" fill="none" xmlns="http://www.w3.org/2000/svg">
<mask id="mask0_341_618" style="mask-type:alpha" maskUnits="userSpaceOnUse" x="41" y="0" width="651" height="649">
<mask id="path-1-outside-1_341_618" maskUnits="userSpaceOnUse" x="40.709" y="-0.5" width="651" height="650" fill="black">
<rect fill="white" x="40.709" y="-0.5" width="651" height="650"/>
<path d="M366.639 162.061L387.066 0.5L386.907 163.337L427.443 5.60362L407.016 167.165L467.022 15.6514L426.486 173.545L505.005 30.6432L444.839 182.157L540.754 50.2603L462.075 193.162L573.63 74.343L477.874 206.08L603.474 102.253L491.759 220.913L629.487 133.673L503.728 237.499L651.351 168.122L513.623 255.362L668.747 204.964L521.124 274.341L681.354 243.719L526.231 294.118L689.015 283.751L528.784 314.213L691.568 324.42L528.784 334.628L689.015 365.09L526.231 354.883L681.354 405.121L521.124 374.659L668.747 444.036L513.623 393.638L651.351 480.878L503.728 411.501L629.487 515.328L491.759 427.928L603.474 546.747L477.874 442.76L573.63 574.657L462.075 455.838L540.754 598.58L444.839 466.684L505.005 618.197L426.486 475.455L467.022 633.189L407.016 481.676L427.443 643.396L386.907 485.503L387.066 648.5L366.639 486.779L346.211 648.5L346.211 485.503L305.674 643.396L326.262 481.676L266.255 633.189L306.792 475.455L228.272 618.197L288.439 466.684L192.524 598.58L271.203 455.838L159.488 574.657L255.403 442.76L129.804 546.747L241.518 427.928L103.79 515.328L229.549 411.501L81.9262 480.878L219.654 393.638L64.5307 444.036L212.153 374.659L51.9229 405.121L207.046 354.883L44.2625 365.09L204.493 334.628L41.709 324.42L204.493 314.213L44.2625 283.751L207.046 294.118L51.9229 243.719L212.153 274.341L64.5307 204.964L219.654 255.362L81.9262 168.122L229.549 237.499L103.79 133.673L241.518 220.913L129.804 102.253L255.403 206.08L159.488 74.343L271.203 193.162L192.524 50.2603L288.439 182.157L228.272 30.6432L306.792 173.545L266.255 15.6514L326.262 167.165L305.674 5.60362L346.211 163.337V0.5L366.639 162.061Z"/>
</mask>
<path d="M366.639 162.061L387.066 0.5L386.907 163.337L427.443 5.60362L407.016 167.165L467.022 15.6514L426.486 173.545L505.005 30.6432L444.839 182.157L540.754 50.2603L462.075 193.162L573.63 74.343L477.874 206.08L603.474 102.253L491.759 220.913L629.487 133.673L503.728 237.499L651.351 168.122L513.623 255.362L668.747 204.964L521.124 274.341L681.354 243.719L526.231 294.118L689.015 283.751L528.784 314.213L691.568 324.42L528.784 334.628L689.015 365.09L526.231 354.883L681.354 405.121L521.124 374.659L668.747 444.036L513.623 393.638L651.351 480.878L503.728 411.501L629.487 515.328L491.759 427.928L603.474 546.747L477.874 442.76L573.63 574.657L462.075 455.838L540.754 598.58L444.839 466.684L505.005 618.197L426.486 475.455L467.022 633.189L407.016 481.676L427.443 643.396L386.907 485.503L387.066 648.5L366.639 486.779L346.211 648.5L346.211 485.503L305.674 643.396L326.262 481.676L266.255 633.189L306.792 475.455L228.272 618.197L288.439 466.684L192.524 598.58L271.203 455.838L159.488 574.657L255.403 442.76L129.804 546.747L241.518 427.928L103.79 515.328L229.549 411.501L81.9262 480.878L219.654 393.638L64.5307 444.036L212.153 374.659L51.9229 405.121L207.046 354.883L44.2625 365.09L204.493 334.628L41.709 324.42L204.493 314.213L44.2625 283.751L207.046 294.118L51.9229 243.719L212.153 274.341L64.5307 204.964L219.654 255.362L81.9262 168.122L229.549 237.499L103.79 133.673L241.518 220.913L129.804 102.253L255.403 206.08L159.488 74.343L271.203 193.162L192.524 50.2603L288.439 182.157L228.272 30.6432L306.792 173.545L266.255 15.6514L326.262 167.165L305.674 5.60362L346.211 163.337V0.5L366.639 162.061Z" stroke="black" stroke-width="2" stroke-miterlimit="10" mask="url(#path-1-outside-1_341_618)"/>
</mask>
<g mask="url(#mask0_341_618)">
<rect x="-785.723" y="-37.6172" width="1152.83" height="702.852" rx="45" fill="black"/>
</g>
<path d="M95.7128 470.596L141.42 495.5L95.7128 520.604L70.709 566.21L45.7052 520.604L-0.00169253 495.5L45.7052 470.596L70.709 424.789L95.7128 470.596Z" fill="#B9FF66"/>
<path d="M217.1 244.065L298.775 288.566L217.1 333.425L172.42 414.922L127.74 333.425L46.0646 288.566L127.74 244.065L172.42 162.211L217.1 244.065Z" fill="#191A23"/>
</svg>
